<svg width="27" height="27" viewBox="0 0 27 27" fill="none" xmlns="http://www.w3.org/2000/svg">
<path d="M19.2276 10.0967C18.7299 10.0027 18.2159 10.0501 17.7439 10.2336C17.2719 10.417 16.8607 10.7291 16.5572 11.1345M19.2276 10.0967C21.1819 10.4574 22.0767 12.8256 20.9024 14.3845H7.86882C6.57099 12.662 7.82982 10.0512 10.0409 10.0512M19.2276 10.0967C19.87 5.97241 15.3232 7.04816 14.5779 4.55C14.3786 3.88158 14.5411 3.08641 15.4717 2.46783C12.733 2.46783 10.8404 4.15458 11.2142 5.90741M11.2142 5.90741C11.3582 6.58775 11.8447 7.27891 12.7557 7.8845M11.2142 5.90741C8.7734 6.87158 9.07674 10.5549 11.6702 11.0803M7.88616 19.1562V14.3845H20.8862V19.1562C20.8862 22.0259 20.828 23.1812 20.2333 23.6578C19.6385 24.1345 16.9103 24.1345 15.2431 24.1345H13.5303C11.8631 24.1345 9.29757 24.1345 8.7039 23.6578C8.10915 23.1812 7.86882 22.5797 7.88616 19.1562Z" stroke="#082F49" stroke-width="2" stroke-linecap="round" stroke-linejoin="round"/>
</svg>
