<svg width="25" height="25" viewBox="0 0 25 25" fill="none" xmlns="http://www.w3.org/2000/svg">
<path d="M16.5552 13.0112C17.5356 12.2398 18.2512 11.1821 18.6025 9.98511C18.9537 8.78813 18.9231 7.51143 18.515 6.33263C18.1069 5.15383 17.3415 4.13156 16.3253 3.40802C15.3091 2.68448 14.0927 2.29567 12.8452 2.29567C11.5978 2.29567 10.3813 2.68448 9.36514 3.40802C8.34896 4.13156 7.58356 5.15383 7.17542 6.33263C6.76729 7.51143 6.73672 8.78813 7.08797 9.98511C7.43922 11.1821 8.15482 12.2398 9.13521 13.0112C7.45529 13.6842 5.9895 14.8005 4.8941 16.2411C3.79871 17.6816 3.11477 19.3925 2.91521 21.1912C2.90077 21.3225 2.91233 21.4554 2.94924 21.5822C2.98615 21.7091 3.04768 21.8274 3.13032 21.9305C3.29723 22.1387 3.54 22.272 3.80521 22.3012C4.07043 22.3303 4.33637 22.253 4.54454 22.0861C4.7527 21.9191 4.88604 21.6764 4.91521 21.4112C5.1348 19.4564 6.0669 17.651 7.53343 16.34C8.99996 15.0289 10.8981 14.3042 12.8652 14.3042C14.8323 14.3042 16.7305 15.0289 18.197 16.34C19.6635 17.651 20.5956 19.4564 20.8152 21.4112C20.8424 21.6569 20.9596 21.8838 21.1443 22.0482C21.329 22.2125 21.568 22.3027 21.8152 22.3012H21.9252C22.1873 22.271 22.4269 22.1385 22.5918 21.9324C22.7566 21.7264 22.8333 21.4635 22.8052 21.2012C22.6047 19.3974 21.9171 17.6821 20.8161 16.2394C19.715 14.7966 18.2421 13.6806 16.5552 13.0112ZM12.8452 12.3012C12.0541 12.3012 11.2807 12.0666 10.6229 11.627C9.96513 11.1875 9.45244 10.5628 9.14969 9.8319C8.84694 9.10099 8.76773 8.29673 8.92207 7.5208C9.07641 6.74488 9.45737 6.03215 10.0168 5.47274C10.5762 4.91333 11.2889 4.53236 12.0649 4.37802C12.8408 4.22368 13.645 4.30289 14.3759 4.60565C15.1069 4.9084 15.7316 5.42109 16.1711 6.07888C16.6106 6.73668 16.8452 7.51004 16.8452 8.30116C16.8452 9.36203 16.4238 10.3794 15.6736 11.1296C14.9235 11.8797 13.9061 12.3012 12.8452 12.3012Z" fill="#082F49"/>
</svg>
