<svg width="37" height="37" viewBox="0 0 37 37" fill="none" xmlns="http://www.w3.org/2000/svg">
<path d="M0.46875 18.8716C0.46875 13.2803 0.46875 10.4846 1.3822 8.27938C2.60012 5.33904 4.93621 3.00295 7.87655 1.78503C10.0818 0.871582 12.8775 0.871582 18.4688 0.871582V0.871582C24.06 0.871582 26.8557 0.871582 29.061 1.78503C32.0013 3.00295 34.3374 5.33904 35.5553 8.27938C36.4688 10.4846 36.4688 13.2803 36.4688 18.8716V18.8716C36.4688 24.4629 36.4688 27.2585 35.5553 29.4638C34.3374 32.4041 32.0013 34.7402 29.061 35.9581C26.8557 36.8716 24.06 36.8716 18.4688 36.8716V36.8716C12.8775 36.8716 10.0818 36.8716 7.87655 35.9581C4.93621 34.7402 2.60012 32.4041 1.3822 29.4638C0.46875 27.2585 0.46875 24.4629 0.46875 18.8716V18.8716Z" fill="#FBCFE8"/>
<path d="M18.4688 35.8716C15.6594 35.8716 13.6025 35.871 11.971 35.7597C10.3484 35.649 9.2197 35.4321 8.25923 35.0343C5.56392 33.9178 3.42251 31.7764 2.30607 29.0811C1.90824 28.1206 1.69132 26.9919 1.58061 25.3694C1.46929 23.7378 1.46875 21.6809 1.46875 18.8716C1.46875 16.0623 1.46929 14.0053 1.58061 12.3738C1.69132 10.7512 1.90824 9.62253 2.30607 8.66207C3.42251 5.96676 5.56392 3.82534 8.25923 2.70891C9.2197 2.31107 10.3484 2.09415 11.971 1.98344C13.6025 1.87212 15.6594 1.87158 18.4688 1.87158C21.2781 1.87158 23.335 1.87212 24.9665 1.98344C26.5891 2.09415 27.7178 2.31107 28.6783 2.70891C31.3736 3.82534 33.515 5.96676 34.6314 8.66207C35.0293 9.62253 35.2462 10.7512 35.3569 12.3738C35.4682 14.0053 35.4688 16.0623 35.4688 18.8716C35.4688 21.6809 35.4682 23.7378 35.3569 25.3694C35.2462 26.9919 35.0293 28.1206 34.6314 29.0811C33.515 31.7764 31.3736 33.9178 28.6783 35.0343C27.7178 35.4321 26.5891 35.649 24.9665 35.7597C23.335 35.871 21.2781 35.8716 18.4688 35.8716Z" stroke="#082F49" stroke-opacity="0.92" stroke-width="2"/>
<path d="M23.3096 15.667C22.812 15.5731 22.298 15.6205 21.8259 15.8039C21.3539 15.9874 20.9428 16.2995 20.6392 16.7049M23.3096 15.667C25.2639 16.0278 26.1588 18.396 24.9844 19.9549H11.9509C10.653 18.2324 11.9119 15.6215 14.1229 15.6215M23.3096 15.667C23.952 11.5428 19.4053 12.6185 18.6599 10.1204C18.4606 9.45196 18.6231 8.65679 19.5537 8.03821C16.815 8.03821 14.9224 9.72496 15.2962 11.4778M15.2962 11.4778C15.4403 12.1581 15.9267 12.8493 16.8378 13.4549M15.2962 11.4778C12.8554 12.442 13.1588 16.1253 15.7523 16.6507M11.9682 24.7265V19.9549H24.9682V24.7265C24.9682 27.5963 24.9101 28.7515 24.3153 29.2282C23.7206 29.7049 20.9924 29.7049 19.3251 29.7049H17.6124C15.9451 29.7049 13.3796 29.7049 12.7859 29.2282C12.1912 28.7515 11.9509 28.1501 11.9682 24.7265Z" stroke="#082F49" stroke-width="2" stroke-linecap="round" stroke-linejoin="round"/>
</svg>
