<svg width="287" height="30" viewBox="0 0 287 30" fill="none" xmlns="http://www.w3.org/2000/svg">
<rect x="0.0644531" y="0.0465088" width="95.3614" height="29.593" fill="#0D793D"/>
<rect x="95.4268" y="0.0412598" width="95.3614" height="29.593" fill="#EBEBEB"/>
<rect x="190.787" y="0.0463867" width="95.3614" height="29.593" fill="#DE0000"/>
<path d="M132.837 22.9041V6.92713H135.119V22.9041H132.837ZM150.904 6.92713H153.186V22.9041H151.315L141.729 10.9898V22.9041H139.446V6.92713H141.318L150.904 18.8414V6.92713Z" fill="black"/>
<path d="M25.4241 14.624C27.2272 15.1261 28.414 16.4728 28.414 18.5954C28.414 21.3343 26.337 22.9092 22.2972 22.9092H14.6739V6.93226H21.8407C25.5154 6.93226 27.5695 8.48431 27.5695 11.0634C27.5695 12.7981 26.6794 14.0078 25.4241 14.624ZM21.6353 8.78102H16.9563V13.8936H21.6353C23.9633 13.8936 25.2871 13.0263 25.2871 11.3373C25.2871 9.64834 23.9633 8.78102 21.6353 8.78102ZM22.2059 21.0604C24.7393 21.0604 26.1088 20.2616 26.1088 18.4128C26.1088 16.5641 24.7393 15.7424 22.2059 15.7424H16.9563V21.0604H22.2059ZM38.704 23.0918C33.7968 23.0918 30.1906 19.5997 30.1906 14.9207C30.1906 10.2418 33.7968 6.74967 38.704 6.74967C43.5655 6.74967 47.1718 10.2189 47.1718 14.9207C47.1718 19.6225 43.5655 23.0918 38.704 23.0918ZM38.704 21.0604C42.2417 21.0604 44.8893 18.4585 44.8893 14.9207C44.8893 11.383 42.2417 8.78102 38.704 8.78102C35.1206 8.78102 32.473 11.383 32.473 14.9207C32.473 18.4585 35.1206 21.0604 38.704 21.0604ZM63.3733 22.9092H60.8855L57.4391 18.002C57.1195 18.0248 56.7772 18.0476 56.4348 18.0476H52.4862V22.9092H50.2038V6.93226H56.4348C60.5888 6.93226 63.0995 9.03209 63.0995 12.5014C63.0995 14.9664 61.8213 16.7467 59.5845 17.5455L63.3733 22.9092ZM56.3663 16.1076C59.2878 16.1076 60.817 14.7838 60.817 12.5014C60.817 10.2189 59.2878 8.91796 56.3663 8.91796H52.4862V16.1076H56.3663ZM77.7882 6.93226H80.0706V22.9092H78.1991L68.6129 10.995V22.9092H66.3305V6.93226H68.2021L77.7882 18.8465V6.93226Z" fill="white"/>
<path d="M210.041 22.9092V6.93226H212.323V22.9092H210.041ZM219.823 22.9092V8.91796H214.345V6.93226H227.56V8.91796H222.082V22.9092H219.823ZM240.724 22.9092L238.967 18.915H230.476L228.719 22.9092H226.368L233.603 6.93226H235.863L243.121 22.9092H240.724ZM231.275 17.089H238.168L234.721 9.26033L231.275 17.089ZM245.048 22.9092V6.93226H247.33V20.9235H255.98V22.9092H245.048ZM268.933 6.93226L262.588 17.3857V22.9092H260.329V17.3401L253.983 6.93226H256.426L261.538 15.3544L266.674 6.93226H268.933Z" fill="white"/>
<g style="mix-blend-mode:screen">
<rect x="190.787" y="0.0360107" width="95.3613" height="29.6034" fill="url(#paint0_radial_2044_696)" fill-opacity="0.44"/>
</g>
<g style="mix-blend-mode:screen">
<rect x="0.0644531" y="0.0360107" width="95.3613" height="29.6034" fill="url(#paint1_radial_2044_696)" fill-opacity="0.3"/>
</g>
<g style="mix-blend-mode:screen">
<rect x="95.4258" y="0.0360107" width="95.3613" height="29.6034" fill="url(#paint2_radial_2044_696)" fill-opacity="0.34"/>
</g>
<defs>
<radialGradient id="paint0_radial_2044_696" cx="0" cy="0" r="1" gradientUnits="userSpaceOnUse" gradientTransform="translate(213.238 10.4406) rotate(29.3202) scale(172.264 46.8898)">
<stop offset="0.134155" stop-color="white" stop-opacity="0"/>
<stop offset="0.45185" stop-color="#D9D9D9"/>
<stop offset="0.75431" stop-color="white" stop-opacity="0"/>
</radialGradient>
<radialGradient id="paint1_radial_2044_696" cx="0" cy="0" r="1" gradientUnits="userSpaceOnUse" gradientTransform="translate(22.8658 0.0360093) rotate(53.0282) scale(120.647 27.0385)">
<stop stop-color="white" stop-opacity="0"/>
<stop offset="0.49445" stop-color="#D9D9D9"/>
<stop offset="1" stop-color="white" stop-opacity="0"/>
</radialGradient>
<radialGradient id="paint2_radial_2044_696" cx="0" cy="0" r="1" gradientUnits="userSpaceOnUse" gradientTransform="translate(118.227 0.0360093) rotate(53.0282) scale(120.647 27.0385)">
<stop stop-color="white" stop-opacity="0"/>
<stop offset="0.49445" stop-color="#D9D9D9"/>
<stop offset="1" stop-color="white" stop-opacity="0"/>
</radialGradient>
</defs>
</svg>
