
<svg width="703" height="343" viewBox="0 0 703 343" fill="none" xmlns="http://www.w3.org/2000/svg">
<g clip-path="url(#clip0_791_242)">

<rect x="182.253" width="112.925" height="35.0435" fill="#0D793D"/>
<rect x="295.179" width="112.925" height="35.0435" fill="#ECECEC"/>
<rect x="408.104" width="112.925" height="35.0435" fill="#DE0000"/>
<path d="M340.06 27.708V8.78842H342.762V27.708H340.06ZM361.454 8.78842H364.157V27.708H361.941L350.589 13.5994V27.708H347.886V8.78842H350.102L361.454 22.897V8.78842Z" fill="black"/>
<path d="M220.669 28.0557H218.074L218.047 14.2714L211.209 25.7583H209.966L203.128 14.3525V28.0557H200.533V9.13608H202.75L210.642 22.4338L218.426 9.13608H220.642L220.669 28.0557ZM239.942 28.0557L237.861 23.3258H227.807L225.725 28.0557H222.942L231.509 9.13608H234.185L242.78 28.0557H239.942ZM228.753 21.1635H236.915L232.834 11.8929L228.753 21.1635ZM245.062 28.0557V9.13608H253.035C259.116 9.13608 263.252 12.9741 263.252 18.5959C263.252 24.2177 259.116 28.0557 253.035 28.0557H245.062ZM247.765 25.7042H252.873C257.549 25.7042 260.549 22.8393 260.549 18.5959C260.549 14.3525 257.549 11.4875 252.873 11.4875H247.765V25.7042ZM269.554 25.7042H280.581V28.0557H266.851V9.13608H280.203V11.4875H269.554V17.2985H279.041V19.5959H269.554V25.7042Z" fill="white"/>
<path d="M434.874 28.0557V9.13608H437.577V28.0557H434.874ZM446.457 28.0557V11.4875H439.971V9.13608H455.62V11.4875H449.133V28.0557H446.457ZM471.208 28.0557L469.127 23.3258H459.073L456.992 28.0557H454.208L462.776 9.13608H465.451L474.046 28.0557H471.208ZM460.019 21.1635H468.181L464.1 11.8929L460.019 21.1635ZM476.328 28.0557V9.13608H479.031V25.7042H489.275V28.0557H476.328ZM504.613 9.13608L497.099 21.5149V28.0557H494.424V21.4608L486.91 9.13608H489.802L495.856 19.1094L501.937 9.13608H504.613Z" fill="white"/>
<path d="M94.8729 171.269V131.956H111.426V179.028C99.356 189.201 82.6307 194.374 65.7329 194.374C28.6612 194.374 1.41783 168.338 1.41783 132.645C1.41783 96.9531 28.6612 70.9167 66.0777 70.9167C85.2171 70.9167 101.425 77.2965 112.46 89.5388L101.77 100.229C91.7693 90.5733 80.3891 86.2627 66.7674 86.2627C38.8344 86.2627 18.6605 105.747 18.6605 132.645C18.6605 159.199 38.8344 179.028 66.595 179.028C76.7682 179.028 86.2516 176.787 94.8729 171.269ZM161.681 177.994H232.031V192.995H144.439V72.2961H229.617V87.2972H161.681V124.369H222.203V139.025H161.681V177.994ZM259.951 192.995V72.2961H277.194V177.994H342.543V192.995H259.951ZM453.013 192.995L439.737 162.82H375.594L362.317 192.995H344.557L399.216 72.2961H416.287L471.118 192.995H453.013ZM381.629 149.026H433.702L407.665 89.8836L381.629 149.026ZM507.029 192.995V87.2972H465.646V72.2961H565.481V87.2972H524.099V192.995H507.029ZM637.064 194.374C599.992 194.374 572.749 167.993 572.749 132.645C572.749 97.298 599.992 70.9167 637.064 70.9167C673.791 70.9167 701.034 97.1255 701.034 132.645C701.034 168.165 673.791 194.374 637.064 194.374ZM637.064 179.028C663.79 179.028 683.791 159.371 683.791 132.645C683.791 105.919 663.79 86.2627 637.064 86.2627C609.993 86.2627 589.991 105.919 589.991 132.645C589.991 159.371 609.993 179.028 637.064 179.028Z" fill="black"/>
<path d="M174.254 324.943V287.648H185.474V329.842C175.044 339.165 160.19 343.906 144.861 343.906C111.2 343.906 86.5478 320.044 86.5478 287.648C86.5478 255.252 111.2 231.389 145.019 231.389C161.77 231.389 176.309 236.762 186.106 247.35L178.837 254.778C169.513 245.612 158.451 241.819 145.493 241.819C118.154 241.819 98.084 261.257 98.084 287.648C98.084 313.881 118.154 333.476 145.335 333.476C155.923 333.476 165.721 331.106 174.254 324.943ZM218.572 342.958V232.337H230.266V332.844H292.213V342.958H218.572ZM394.588 342.958L381.314 313.406H319.682L306.408 342.958H294.239L344.809 232.337H356.345L406.914 342.958H394.588ZM323.949 303.925H377.047L350.498 244.506L323.949 303.925ZM471.711 343.906C438.525 343.906 413.873 320.044 413.873 287.648C413.873 255.252 438.525 231.389 471.869 231.389C487.989 231.389 502.527 236.762 512.325 247.508L504.898 254.936C495.89 245.77 484.828 241.819 472.186 241.819C445.479 241.819 425.409 261.415 425.409 287.648C425.409 313.881 445.479 333.476 472.186 333.476C484.828 333.476 495.89 329.525 504.898 320.202L512.325 327.629C502.527 338.375 487.989 343.906 471.711 343.906ZM601.73 203.734L576.129 223.33H565.067L586.717 203.734H601.73ZM548.948 332.844H615.479V342.958H537.254V232.337H613.108V242.451H548.948V281.801H606.155V291.756H548.948V332.844Z" fill="black"/>
</g>
<defs>
<clipPath id="clip0_791_242">
<rect width="703" height="343" fill="white"/>
</clipPath>
</defs>
</svg>
