<svg width="553" height="224" viewBox="0 0 553 224" fill="none" xmlns="http://www.w3.org/2000/svg">
<path d="M498.69 104.308C467.384 104.308 444.378 82.0304 444.378 52.1808C444.378 22.3311 467.384 0.0531006 498.69 0.0531006C529.704 0.0531006 552.71 22.1855 552.71 52.1808C552.71 82.176 529.704 104.308 498.69 104.308ZM498.69 91.3493C521.259 91.3493 538.149 74.75 538.149 52.1808C538.149 29.6115 521.259 13.0122 498.69 13.0122C475.829 13.0122 458.939 29.6115 458.939 52.1808C458.939 74.75 475.829 91.3493 498.69 91.3493Z" fill="inherit"/>
<path d="M403.783 104.308V12.8802H368.837V0.21228H453.144V12.8802H418.198V104.308H403.783Z" fill="inherit"/>
<path d="M374.008 104.308L362.796 78.827H308.63L297.419 104.308H282.421L328.579 0.160767H342.994L389.297 104.308H374.008ZM313.727 67.1784H357.7L335.713 15.0128L313.727 67.1784Z" fill="inherit"/>
<path d="M198.279 104.308V0.278076H212.84V91.6405H268.026V104.308H198.279Z" fill="inherit"/>
<path d="M121.944 91.6405H181.352V104.308H107.383V0.21228H179.313V12.8802H121.944V46.3564H173.052V58.7331H121.944V91.6405Z" fill="inherit"/>
<path d="M78.9195 84.797V51.5983H92.8979V91.3493C82.7053 99.9402 68.5814 104.308 54.3118 104.308C23.0061 104.308 0 82.3216 0 52.1808C0 22.0399 23.0061 0.0531006 54.603 0.0531006C70.7655 0.0531006 84.4526 5.4406 93.7715 15.7788L84.7439 24.8065C76.2986 16.6524 66.6885 13.0122 55.1854 13.0122C31.5969 13.0122 14.5608 29.4659 14.5608 52.1808C14.5608 74.6044 31.5969 91.3493 55.0398 91.3493C63.6307 91.3493 71.6391 89.4564 78.9195 84.797Z" fill="inherit"/>
<path d="M474.542 108.41L452.923 124.958H443.581L461.864 108.41H474.542ZM433.571 215.287H489.753V223.827H423.695V128.963H487.751V137.504H433.571V172.182H481.88V180.589H433.571V215.287Z" fill="inherit"/>
<path d="M375.848 223.827C347.823 223.827 327.005 203.676 327.005 176.319C327.005 148.962 347.823 128.811 375.981 128.811C389.593 128.811 401.871 133.348 410.144 142.423L403.872 148.695C396.266 140.955 386.924 137.619 376.248 137.619C353.695 137.619 336.747 154.166 336.747 176.319C336.747 198.472 353.695 215.02 376.248 215.02C386.924 215.02 396.266 211.683 403.872 203.81L410.144 210.082C401.871 219.157 389.593 223.827 375.848 223.827Z" fill="inherit"/>
<path d="M317.512 223.827L306.303 198.872H254.257L243.047 223.827H232.771L275.476 128.929H285.217L327.922 223.827H317.512ZM257.86 190.865H302.699L280.28 139.205L257.86 190.865Z" fill="inherit"/>
<path d="M157.878 223.827V128.89H167.753V215.287H220.066V223.827H157.878Z" fill="inherit"/>
<path d="M134.022 207.813V176.319H143.497V211.95C134.689 219.824 122.145 223.827 109.2 223.827C80.7753 223.827 59.957 203.676 59.957 176.319C59.957 148.962 80.7753 128.811 109.334 128.811C123.479 128.811 135.757 133.348 144.031 142.289L137.892 148.561C130.018 140.821 120.677 137.619 109.734 137.619C86.6471 137.619 69.6989 154.033 69.6989 176.319C69.6989 198.472 86.6471 215.02 109.601 215.02C118.542 215.02 126.816 213.018 134.022 207.813Z" fill="inherit"/>
</svg>
